<svg xmlns="http://www.w3.org/2000/svg" xmlns:xlink="http://www.w3.org/1999/xlink" width="500" zoomAndPan="magnify" viewBox="0 0 375 135.000003" height="180" preserveAspectRatio="xMidYMid meet" version="1.0"><defs><clipPath id="6b7ddce258"><path d="M 1.378906 2.445312 L 373.621094 2.445312 L 373.621094 131.242188 L 1.378906 131.242188 Z M 1.378906 2.445312 " clip-rule="nonzero"/></clipPath><clipPath id="42b38a8871"><path d="M 10.609375 31.238281 L 115.160156 31.238281 L 115.160156 36.917969 L 10.609375 36.917969 Z M 10.609375 31.238281 " clip-rule="nonzero"/></clipPath><clipPath id="fe9db9606a"><path d="M 18.90625 46.425781 L 123.457031 46.425781 L 123.457031 52.101562 L 18.90625 52.101562 Z M 18.90625 46.425781 " clip-rule="nonzero"/></clipPath><clipPath id="d7abbd95b8"><path d="M 18.90625 61.675781 L 98.136719 61.675781 L 98.136719 67.351562 L 18.90625 67.351562 Z M 18.90625 61.675781 " clip-rule="nonzero"/></clipPath><clipPath id="f0f7086675"><path d="M 18.90625 76.925781 L 98.136719 76.925781 L 98.136719 82.601562 L 18.90625 82.601562 Z M 18.90625 76.925781 " clip-rule="nonzero"/></clipPath><clipPath id="bb7f3b3d79"><path d="M 18.90625 92.175781 L 98.136719 92.175781 L 98.136719 97.859375 L 18.90625 97.859375 Z M 18.90625 92.175781 " clip-rule="nonzero"/></clipPath><clipPath id="9a4491d24e"><path d="M 13.367188 107.429688 L 98.136719 107.429688 L 98.136719 113.109375 L 13.367188 113.109375 Z M 13.367188 107.429688 " clip-rule="nonzero"/></clipPath></defs><g clip-path="url(#6b7ddce258)"><path fill="#ffffff" d="M 1.378906 -110.109375 L 373.621094 -110.109375 L 373.621094 262.132812 L 1.378906 262.132812 Z M 1.378906 -110.109375 " fill-opacity="1" fill-rule="nonzero"/><path fill="#ffffff" d="M 1.378906 -110.109375 L 373.621094 -110.109375 L 373.621094 262.132812 L 1.378906 262.132812 Z M 1.378906 -110.109375 " fill-opacity="1" fill-rule="nonzero"/></g><path fill="#000000" d="M 101.761719 34.582031 L 46.714844 111.125 C 50.445312 111.324219 54.566406 111.519531 59.078125 111.714844 C 63.59375 111.914062 68.554688 112.007812 73.953125 112.007812 C 79.441406 112.007812 83.777344 111.691406 86.964844 111.046875 C 90.160156 110.40625 92.445312 109.773438 93.820312 109.140625 C 95.191406 108.5 95.882812 108.179688 95.882812 108.179688 C 95.882812 108.179688 96.152344 108.671875 96.691406 109.652344 C 97.226562 110.636719 97.496094 112.253906 97.496094 114.507812 C 97.496094 118.242188 96.171875 121.332031 93.527344 123.78125 C 90.878906 126.230469 86.660156 127.457031 80.871094 127.457031 C 76.253906 127.457031 71.617188 127.046875 66.957031 126.214844 C 62.292969 125.378906 58.023438 124.425781 54.144531 123.347656 C 50.277344 122.261719 47.167969 121.308594 44.808594 120.476562 C 42.449219 119.640625 41.273438 119.222656 41.273438 119.222656 C 41.273438 119.222656 40.65625 119.910156 39.425781 121.285156 C 38.207031 122.648438 36.371094 124.023438 33.921875 125.394531 C 31.46875 126.769531 28.429688 127.457031 24.800781 127.457031 C 21.066406 127.457031 18.417969 126.554688 16.84375 124.742188 C 15.273438 122.925781 14.484375 120.933594 14.484375 118.773438 C 14.484375 116.519531 15.300781 114.507812 16.921875 112.738281 C 18.535156 110.96875 21.007812 110.039062 24.351562 109.945312 L 79.832031 33.417969 C 76.199219 33.226562 72.152344 33.027344 67.6875 32.832031 C 63.226562 32.636719 58.300781 32.535156 52.90625 32.535156 C 47.507812 32.535156 43.1875 32.855469 39.953125 33.496094 C 36.714844 34.128906 34.410156 34.765625 33.035156 35.40625 C 31.660156 36.035156 30.972656 36.351562 30.972656 36.351562 C 30.972656 36.351562 30.703125 35.867188 30.167969 34.894531 C 29.628906 33.910156 29.359375 32.289062 29.359375 30.023438 C 29.359375 26.300781 30.710938 23.214844 33.410156 20.761719 C 36.105469 18.304688 40.300781 17.070312 45.988281 17.070312 C 50.597656 17.070312 55.230469 17.492188 59.882812 18.328125 C 64.546875 19.164062 68.816406 20.125 72.695312 21.199219 C 76.574219 22.277344 79.691406 23.230469 82.046875 24.066406 C 84.40625 24.90625 85.585938 25.324219 85.585938 25.324219 C 85.585938 25.324219 86.195312 24.636719 87.414062 23.261719 C 88.644531 21.886719 90.484375 20.511719 92.9375 19.136719 C 95.386719 17.761719 98.425781 17.070312 102.054688 17.070312 C 105.785156 17.070312 108.4375 17.984375 110.011719 19.800781 C 111.582031 21.613281 112.371094 23.597656 112.371094 25.757812 C 112.371094 28.015625 111.53125 30.050781 109.859375 31.867188 C 108.191406 33.679688 105.492188 34.582031 101.761719 34.582031 Z M 101.761719 34.582031 " fill-opacity="1" fill-rule="nonzero"/><path fill="#000000" d="M 133.851562 127.457031 C 127.46875 127.457031 121.753906 126.1875 116.695312 123.640625 C 111.648438 121.089844 107.703125 117.433594 104.863281 112.675781 C 102.007812 107.910156 100.582031 102.238281 100.582031 95.660156 C 100.582031 89.191406 101.714844 83.355469 103.976562 78.152344 C 106.230469 72.949219 109.242188 68.5625 113.019531 64.984375 C 116.792969 61.40625 121.011719 58.664062 125.675781 56.746094 C 130.335938 54.835938 135.121094 53.878906 140.023438 53.878906 C 145.023438 53.878906 149.074219 54.636719 152.167969 56.15625 C 155.257812 57.675781 157.511719 59.59375 158.929688 61.894531 C 160.355469 64.203125 161.070312 66.625 161.070312 69.171875 C 161.070312 75.851562 157.414062 81.421875 150.105469 85.890625 C 142.792969 90.347656 132.664062 93.800781 119.71875 96.25 C 120.203125 101.753906 122.265625 106.390625 125.894531 110.164062 C 129.53125 113.941406 134.488281 115.824219 140.765625 115.824219 C 146.058594 115.824219 150.59375 115.09375 154.371094 113.621094 C 158.152344 112.15625 161.296875 110.34375 163.800781 108.179688 C 166.300781 106.019531 168.1875 103.910156 169.460938 101.851562 C 171.621094 101.851562 172.40625 103.128906 171.820312 105.679688 C 171.527344 107.242188 170.421875 109.257812 168.5 111.714844 C 166.585938 114.164062 164.007812 116.597656 160.777344 119.003906 C 157.539062 121.40625 153.640625 123.417969 149.082031 125.039062 C 144.519531 126.652344 139.441406 127.457031 133.851562 127.457031 Z M 140.179688 61.230469 C 137.425781 61.230469 134.578125 62.285156 131.632812 64.394531 C 128.691406 66.503906 126.144531 69.648438 123.984375 73.824219 C 121.820312 77.992188 120.449219 83.160156 119.859375 89.332031 C 128.886719 87.183594 135.386719 84.023438 139.355469 79.855469 C 143.335938 75.679688 145.328125 71.1875 145.328125 66.378906 C 145.328125 64.808594 144.863281 63.554688 143.929688 62.625 C 143 61.695312 141.75 61.230469 140.179688 61.230469 Z M 140.179688 61.230469 " fill-opacity="1" fill-rule="nonzero"/><path fill="#000000" d="M 200.519531 19.878906 L 191.675781 71.527344 C 198.054688 59.761719 206.054688 53.878906 215.671875 53.878906 C 222.535156 53.878906 227.785156 56.058594 231.414062 60.421875 C 235.050781 64.789062 236.875 70.796875 236.875 78.445312 C 236.875 80.703125 236.75 82.910156 236.5 85.066406 C 236.253906 87.230469 235.933594 89.292969 235.539062 91.257812 C 238.382812 90.957031 240.957031 90.226562 243.265625 89.054688 C 245.566406 87.875 247.507812 86.554688 249.082031 85.082031 C 250.652344 83.605469 251.847656 82.355469 252.679688 81.332031 C 253.515625 80.300781 253.933594 79.78125 253.933594 79.78125 C 256 79.78125 256.886719 81.003906 256.585938 83.457031 C 256.296875 85.222656 255.117188 87.1875 253.050781 89.347656 C 250.992188 91.5 248.292969 93.390625 244.953125 95.011719 C 241.625 96.625 237.898438 97.628906 233.773438 98.019531 C 230.730469 106.851562 225.925781 113.964844 219.347656 119.359375 C 212.777344 124.757812 205.128906 127.457031 196.394531 127.457031 C 182.949219 127.457031 174.21875 125.007812 170.195312 120.105469 C 168.035156 117.554688 166.953125 114.164062 166.953125 109.945312 C 166.953125 108.859375 167.03125 107.683594 167.1875 106.410156 C 167.335938 105.136719 167.503906 103.765625 167.699219 102.285156 L 181.828125 19.289062 C 182.613281 14.679688 182.828125 11.417969 182.480469 9.503906 C 182.140625 7.589844 181.96875 6.632812 181.96875 6.632812 C 181.96875 6.632812 182.558594 6.414062 183.738281 5.964844 C 184.914062 5.523438 186.878906 5.300781 189.628906 5.300781 C 195.316406 5.300781 198.769531 6.433594 199.992188 8.695312 C 201.21875 10.953125 201.394531 14.679688 200.519531 19.878906 Z M 210.382812 82.417969 C 210.382812 79.964844 211.019531 77.808594 212.289062 75.949219 C 213.5625 74.085938 215.378906 72.910156 217.734375 72.410156 C 216.855469 67.605469 214.449219 65.199219 210.523438 65.199219 C 206.304688 65.199219 201.742188 69.078125 196.84375 76.832031 C 194.679688 80.164062 192.617188 84.183594 190.652344 88.898438 C 188.6875 93.605469 187.015625 99.738281 185.644531 107.292969 C 185.351562 108.867188 185.15625 110.296875 185.054688 111.574219 C 184.960938 112.847656 184.914062 113.972656 184.914062 114.941406 C 184.914062 115.925781 184.933594 116.761719 184.976562 117.453125 C 185.027344 118.136719 185.105469 118.675781 185.210938 119.066406 C 186.191406 119.367188 187.246094 119.617188 188.375 119.8125 C 189.5 120.007812 190.75 120.105469 192.128906 120.105469 C 195.558594 120.105469 198.820312 118.953125 201.914062 116.648438 C 205.003906 114.34375 207.722656 111.203125 210.074219 107.230469 C 212.429688 103.253906 214.296875 98.761719 215.671875 93.753906 C 212.144531 91.109375 210.382812 87.328125 210.382812 82.417969 Z M 210.382812 82.417969 " fill-opacity="1" fill-rule="nonzero"/><path fill="#000000" d="M 274.398438 68.441406 L 273.21875 74.910156 C 277.921875 66.96875 282.578125 61.476562 287.195312 58.4375 C 291.804688 55.398438 295.777344 53.878906 299.121094 53.878906 C 302.75 53.878906 305.621094 54.863281 307.730469 56.824219 C 309.839844 58.777344 310.894531 61.625 310.894531 65.355469 C 310.894531 69.472656 309.765625 72.859375 307.511719 75.515625 C 305.253906 78.164062 302.308594 79.484375 298.671875 79.484375 C 296.808594 79.484375 295.234375 79.339844 293.957031 79.050781 C 292.683594 78.75 292.046875 78.601562 292.046875 78.601562 C 292.046875 78.601562 292.367188 77.867188 293.011719 76.398438 C 293.648438 74.921875 293.972656 73.199219 293.972656 71.234375 C 293.972656 69.074219 292.941406 67.992188 290.886719 67.992188 C 289.707031 67.992188 288.28125 68.582031 286.605469 69.761719 C 284.9375 70.9375 282.882812 73.246094 280.429688 76.675781 C 278.570312 79.234375 276.800781 82.105469 275.125 85.300781 C 273.460938 88.488281 271.890625 92.386719 270.410156 96.996094 C 268.941406 101.609375 267.621094 107.394531 266.441406 114.351562 C 265.757812 118.675781 265.589844 121.71875 265.929688 123.488281 C 266.269531 125.253906 266.441406 126.140625 266.441406 126.140625 C 266.441406 126.140625 265.851562 126.363281 264.671875 126.804688 C 263.503906 127.242188 261.542969 127.457031 258.792969 127.457031 C 253.105469 127.457031 249.652344 126.304688 248.417969 124 C 247.1875 121.695312 247.019531 117.992188 247.90625 112.894531 L 255.707031 67.851562 C 256.492188 63.242188 256.707031 59.980469 256.359375 58.066406 C 256.019531 56.152344 255.847656 55.195312 255.847656 55.195312 C 255.847656 55.195312 256.4375 54.980469 257.617188 54.542969 C 258.792969 54.101562 260.757812 53.878906 263.507812 53.878906 C 269.195312 53.878906 272.648438 55.078125 273.871094 57.476562 C 275.101562 59.875 275.273438 63.53125 274.398438 68.441406 Z M 274.398438 68.441406 " fill-opacity="1" fill-rule="nonzero"/><path fill="#000000" d="M 315.164062 95.074219 L 319.867188 67.851562 C 320.648438 63.136719 320.875 59.847656 320.53125 57.988281 C 320.191406 56.125 320.019531 55.195312 320.019531 55.195312 C 320.019531 55.195312 320.601562 54.980469 321.773438 54.542969 C 322.953125 54.101562 324.914062 53.878906 327.667969 53.878906 C 333.363281 53.878906 336.820312 55.003906 338.042969 57.257812 C 339.273438 59.515625 339.441406 63.242188 338.554688 68.441406 L 332.816406 101.695312 C 332.132812 106.113281 332.355469 109.371094 333.484375 111.480469 C 334.609375 113.589844 336.496094 114.644531 339.144531 114.644531 C 341.695312 114.644531 344.441406 113.496094 347.378906 111.1875 C 350.328125 108.882812 352.734375 105.769531 354.609375 101.851562 C 355.589844 101.851562 356.347656 102.144531 356.886719 102.734375 C 357.421875 103.324219 357.59375 104.308594 357.398438 105.679688 C 357.003906 107.636719 356.097656 109.847656 354.671875 112.304688 C 353.25 114.753906 351.367188 117.136719 349.007812 119.4375 C 346.652344 121.746094 343.953125 123.65625 340.914062 125.175781 C 337.871094 126.699219 334.585938 127.457031 331.046875 127.457031 C 325.949219 127.457031 321.804688 125.867188 318.609375 122.679688 C 315.425781 119.484375 313.832031 114.949219 313.832031 109.0625 C 313.832031 107.597656 313.933594 105.632812 314.125 103.183594 C 314.324219 100.726562 314.667969 98.019531 315.164062 95.074219 Z M 325.015625 31.792969 C 325.015625 28.75 326.042969 26.230469 328.101562 24.222656 C 330.167969 22.207031 332.574219 21.199219 335.328125 21.199219 C 338.171875 21.199219 340.402344 22.082031 342.015625 23.851562 C 343.632812 25.617188 344.449219 27.828125 344.449219 30.472656 C 344.449219 33.015625 343.492188 35.34375 341.578125 37.453125 C 339.664062 39.5625 337.089844 40.617188 333.855469 40.617188 C 331.207031 40.617188 329.070312 39.785156 327.449219 38.121094 C 325.824219 36.457031 325.015625 34.347656 325.015625 31.792969 Z M 325.015625 31.792969 " fill-opacity="1" fill-rule="nonzero"/><g clip-path="url(#42b38a8871)"><path fill="#ffffff" d="M 10.609375 31.238281 L 115.164062 31.238281 L 115.164062 36.917969 L 10.609375 36.917969 Z M 10.609375 31.238281 " fill-opacity="1" fill-rule="nonzero"/></g><g clip-path="url(#fe9db9606a)"><path fill="#ffffff" d="M 18.90625 46.425781 L 123.460938 46.425781 L 123.460938 52.101562 L 18.90625 52.101562 Z M 18.90625 46.425781 " fill-opacity="1" fill-rule="nonzero"/></g><g clip-path="url(#d7abbd95b8)"><path fill="#ffffff" d="M 18.90625 61.675781 L 98.132812 61.675781 L 98.132812 67.351562 L 18.90625 67.351562 Z M 18.90625 61.675781 " fill-opacity="1" fill-rule="nonzero"/></g><g clip-path="url(#f0f7086675)"><path fill="#ffffff" d="M 18.90625 76.925781 L 98.132812 76.925781 L 98.132812 82.601562 L 18.90625 82.601562 Z M 18.90625 76.925781 " fill-opacity="1" fill-rule="nonzero"/></g><g clip-path="url(#bb7f3b3d79)"><path fill="#ffffff" d="M 18.90625 92.175781 L 98.132812 92.175781 L 98.132812 97.859375 L 18.90625 97.859375 Z M 18.90625 92.175781 " fill-opacity="1" fill-rule="nonzero"/></g><g clip-path="url(#9a4491d24e)"><path fill="#ffffff" d="M 13.367188 107.429688 L 98.136719 107.429688 L 98.136719 113.109375 L 13.367188 113.109375 Z M 13.367188 107.429688 " fill-opacity="1" fill-rule="nonzero"/></g></svg>